<svg xmlns="http://www.w3.org/2000/svg" xmlns:xlink="http://www.w3.org/1999/xlink" width="640" height="360" viewBox="0 0 640 360">
  <defs>
    <rect id="picture-a" width="640" height="360"/>
    <linearGradient id="picture-b" x1="50%" x2="50%" y1="66.013%" y2="1.07%">
      <stop offset="0%" stop-color="#FFF"/>
      <stop offset="100%" stop-color="#ECF5FF"/>
    </linearGradient>
  </defs>
  <g fill="none" fill-rule="evenodd">
    <mask id="picture-c" fill="#fff">
      <use xlink:href="#picture-a"/>
    </mask>
    <use fill="#FFF" xlink:href="#picture-a"/>
    <rect width="641" height="360" fill="url(#picture-b)" mask="url(#picture-c)"/>
    <g mask="url(#picture-c)">
      <g transform="translate(169 74)">
        <path fill="#00A1E0" fill-rule="nonzero" d="M125.699346,23.2482229 C135.429786,13.0813086 148.975694,6.77582286 163.957612,6.77582286 C183.873002,6.77582286 201.248572,17.9124857 210.501852,34.4448514 C218.542602,30.8420629 227.443146,28.8380571 236.807864,28.8380571 C272.727744,28.8380571 301.849,58.2960629 301.849,94.6328629 C301.849,130.973903 272.727744,160.431606 236.807864,160.431606 C232.424032,160.431606 228.139256,159.992463 223.99642,159.152034 C215.847856,173.727943 200.320224,183.575949 182.497694,183.575949 C175.037086,183.575949 167.980554,181.847846 161.69684,178.774754 C153.43714,198.259977 134.191586,211.922469 111.762046,211.922469 C88.404158,211.922469 68.497526,197.10064 60.85602,176.313737 C57.516504,177.025451 54.057094,177.395543 50.507084,177.395543 C22.69681,177.395543 0.151,154.553149 0.151,126.370777 C0.151,107.484606 10.280684,90.9952457 25.331156,82.1730171 C22.232636,75.02256 20.509122,67.1313143 20.509122,58.8348457 C20.50882,26.4242857 46.74658,0.151428571 79.1089,0.151428571 C98.108928,0.151428571 114.994654,9.21079429 125.69995,23.2482229"/>
        <path fill="#FFF" fill-rule="nonzero" d="M43.849192,109.970457 C43.659838,110.465931 43.917746,110.569509 43.978146,110.655823 C44.545302,111.069526 45.121216,111.366931 45.701358,111.69856 C48.778134,113.336411 51.683374,113.814926 54.722098,113.814926 C60.910682,113.814926 64.752726,110.513783 64.752726,105.199246 L64.752726,105.096274 C64.752726,100.18272 60.416006,98.3982857 56.346556,97.1099314 L55.817452,96.9373029 C52.749132,95.9378743 50.101498,95.0753371 50.101498,93.0498286 L50.101498,92.9420114 C50.101498,91.2096686 51.648946,89.9337314 54.047128,89.9337314 C56.711674,89.9337314 59.874822,90.8220114 61.912114,91.95076 C61.912114,91.95076 62.50947,92.3390229 62.72842,91.7569314 C62.84922,91.4468057 63.88055,88.66264 63.98776,88.3609943 C64.10403,88.0333029 63.897764,87.7916229 63.68727,87.6626057 C61.36187,86.2452343 58.147382,85.2754857 54.821154,85.2754857 L54.202054,85.2797257 C48.537742,85.2797257 44.583958,88.7104914 44.583958,93.6279829 L44.583958,93.7309543 C44.583958,98.9158686 48.945744,100.596726 53.033012,101.769389 L53.690466,101.971697 C56.66879,102.889354 59.234582,103.678297 59.234582,105.78164 L59.234582,105.884611 C59.234582,107.807149 57.566938,109.238149 54.876722,109.238149 C53.832406,109.238149 50.501648,109.216949 46.904526,106.936434 C46.47025,106.68264 46.216872,106.497291 45.881652,106.294377 C45.705284,106.18232 45.262552,105.988491 45.069272,106.574823 L43.849192,109.971063 L43.849192,109.970457 Z M134.448588,109.970457 C134.259536,110.465931 134.517444,110.569509 134.577542,110.655823 C135.145302,111.069526 135.721216,111.366931 136.301358,111.69856 C139.378738,113.336411 142.283978,113.814926 145.322098,113.814926 C151.510984,113.814926 155.353028,110.513783 155.353028,105.199246 L155.353028,105.096274 C155.353028,100.18272 151.016308,98.3982857 146.946858,97.1099314 L146.418358,96.9373029 C143.349434,95.9378743 140.702102,95.0753371 140.702102,93.0498286 L140.702102,92.9420114 C140.702102,91.2096686 142.249248,89.9337314 144.64743,89.9337314 C147.311976,89.9337314 150.475124,90.8220114 152.512114,91.95076 C152.512114,91.95076 153.10947,92.3390229 153.328722,91.7569314 C153.449522,91.4468057 154.48055,88.66264 154.588062,88.3609943 C154.70403,88.0333029 154.497462,87.7916229 154.28727,87.6626057 C151.96187,86.2452343 148.747382,85.2754857 145.421154,85.2754857 L144.802054,85.2797257 C139.137742,85.2797257 135.183958,88.7104914 135.183958,93.6279829 L135.183958,93.7309543 C135.183958,98.9158686 139.546046,100.596726 143.633314,101.769389 L144.290768,101.971697 C147.269092,102.889354 149.839112,103.678297 149.839112,105.78164 L149.839112,105.884611 C149.839112,107.807149 148.16724,109.238149 145.477024,109.238149 C144.43301,109.238149 141.102252,109.216949 137.50513,106.936434 C137.070854,106.68264 136.812946,106.505771 136.486484,106.294377 C136.374744,106.221691 135.850472,106.018777 135.669876,106.574823 L134.449192,109.971063 L134.448588,109.970457 Z M196.29849,99.5612571 C196.29849,102.5656 195.73979,104.930914 194.639604,106.603594 C193.552404,108.258709 191.906504,109.064611 189.611304,109.064611 C187.312178,109.064611 185.674734,108.262646 184.604144,106.603291 C183.521474,104.935457 182.971532,102.564994 182.971532,99.5609543 C182.971532,96.5611543 183.521172,94.1994743 184.604446,92.54436 C185.674734,90.9065086 187.312178,90.1093886 189.611606,90.1093886 C191.906202,90.1093886 193.552706,90.9065086 194.643832,92.54436 C195.740092,94.1994743 196.298792,96.5611543 196.298792,99.5609543 L196.29849,99.5612571 Z M201.464502,93.9926229 C200.957142,92.273 200.166808,90.7556857 199.113734,89.4930743 C198.060962,88.22592 196.728538,87.2086229 195.146964,86.4675314 C193.570524,85.7303771 191.704768,85.35544 189.611908,85.35544 C187.514518,85.35544 185.649668,85.7303771 184.072322,86.4675314 C182.490446,87.2086229 181.158022,88.22592 180.101022,89.4930743 C179.052176,90.7602286 178.261842,92.27724 177.749952,93.9926229 C177.247122,95.7037657 176.993744,97.5739086 176.993744,99.5609543 C176.993744,101.547697 177.247424,103.422383 177.750254,105.129286 C178.261842,106.844669 179.04825,108.36168 180.105854,109.628834 C181.158324,110.895989 182.494674,111.908743 184.072322,112.628634 C185.653594,113.348223 187.514216,113.71468 189.611606,113.71468 C191.704466,113.71468 193.56539,113.348223 195.147266,112.628634 C196.72431,111.908743 198.060962,110.896291 199.113734,109.628834 C200.166808,108.36592 200.957444,106.848606 201.464804,105.129286 C201.972164,103.418143 202.225844,101.543457 202.225844,99.5609543 C202.225844,97.5784514 201.972164,95.7034629 201.464804,93.9926229 L201.464502,93.9926229 Z"/>
        <path fill="#FFF" d="M243.885536,108.262343 C243.713396,107.758086 243.228082,107.947371 243.228082,107.947371 C242.476102,108.2366 241.67701,108.50372 240.825974,108.63728 C239.962254,108.771143 239.012464,108.840194 237.993818,108.840194 C235.492654,108.840194 233.507004,108.094257 232.084584,106.620251 C230.657936,105.146246 229.858844,102.763063 229.8673,99.5394514 C229.875756,96.60416 230.580624,94.3975429 231.84842,92.7166857 C233.10776,91.0443086 235.024252,90.1866171 237.581588,90.1866171 C239.713104,90.1866171 241.337562,90.4325371 243.039634,90.9710171 C243.039634,90.9710171 243.447938,91.1478857 243.641218,90.6136457 C244.092406,89.3549714 244.427626,88.4542743 244.909014,87.0708229 C245.046726,86.6786229 244.711506,86.5105371 244.591008,86.4629886 C243.920568,86.2004114 242.338994,85.7736857 241.144282,85.5925771 C240.026882,85.4199486 238.720128,85.3296971 237.267508,85.3296971 C235.097034,85.3296971 233.163328,85.7003943 231.508368,86.4417886 C229.85824,87.17864 228.457262,88.1959371 227.348318,89.4630914 C226.239978,90.7302457 225.397398,92.2472571 224.834168,93.96264 C224.275468,95.6737829 223.991588,97.5527086 223.991588,99.5394514 C223.991588,103.836389 225.148248,107.31016 227.43016,109.852949 C229.7163,112.404823 233.15004,113.702263 237.628096,113.702263 C240.275428,113.702263 242.991616,113.163177 244.942536,112.3918 C244.942536,112.3918 245.317016,112.210994 245.153332,111.775486 L243.885536,108.262949 L243.885536,108.262343 Z M252.924094,96.6835086 C253.168714,95.0156743 253.628962,93.62768 254.338058,92.5458743 C255.407742,90.9037829 257.040958,90.0030857 259.336158,90.0030857 C261.630754,90.0030857 263.148002,90.9086286 264.235202,92.5458743 C264.956982,93.62768 265.271062,95.0759429 265.395788,96.6835086 L252.923792,96.6835086 L252.924094,96.6835086 Z M270.316878,93.0159086 C269.878072,91.3562514 268.790872,89.6799371 268.077548,88.9128 C266.951088,87.6974343 265.851204,86.8482229 264.759474,86.3742514 C263.332826,85.76248 261.622298,85.3566514 259.748388,85.3566514 C257.564928,85.3566514 255.583808,85.7231086 253.976564,86.4820686 C252.365092,87.2404229 251.010924,88.2749829 249.949696,89.56364 C248.887864,90.8477543 248.08847,92.3771829 247.581412,94.1143714 C247.070126,95.8427771 246.812218,97.7262457 246.812218,99.7129886 C246.812218,101.734257 247.078884,103.617726 247.607384,105.311606 C248.140414,107.018206 248.99145,108.522497 250.143278,109.768149 C251.290878,111.021977 252.769168,112.004749 254.539794,112.690114 C256.297434,113.371543 258.43348,113.724674 260.887834,113.720434 C265.937274,113.703171 268.597894,112.57412 269.693248,111.966286 C269.886528,111.858469 270.071654,111.66888 269.839416,111.125857 L268.696044,107.914966 C268.523904,107.436451 268.03859,107.61332 268.03859,107.61332 C266.787706,108.078811 265.008624,108.915 260.861258,108.90652 C258.149902,108.901977 256.138582,108.100314 254.879242,106.846183 C253.585474,105.562069 252.953992,103.674057 252.842252,101.010731 L270.329562,101.027994 C270.329562,101.027994 270.789206,101.018909 270.836922,100.57068 C270.853834,100.381394 271.437902,96.9678914 270.316576,93.0159086 L270.316878,93.0159086 Z M112.876124,96.6835086 C113.125274,95.0156743 113.580992,93.62768 114.290088,92.5458743 C115.360074,90.9037829 116.992988,90.0030857 119.288188,90.0030857 C121.583388,90.0030857 123.100334,90.9086286 124.191762,92.5458743 C124.909918,93.62768 125.223696,95.0759429 125.348422,96.6835086 L112.87552,96.6835086 L112.876124,96.6835086 Z M130.264378,93.0159086 C129.825874,91.3562514 128.742902,89.6799371 128.029578,88.9128 C126.903118,87.6974343 125.803234,86.8482229 124.711504,86.3742514 C123.284856,85.76248 121.574328,85.3566514 119.700418,85.3566514 C117.521488,85.3566514 115.535838,85.7231086 113.928594,86.4820686 C112.317122,87.2404229 110.962954,88.2749829 109.901726,89.56364 C108.840196,90.8477543 108.040802,92.3771829 107.534046,94.1143714 C107.026686,95.8427771 106.76455,97.7262457 106.76455,99.7129886 C106.76455,101.734257 107.030914,103.617726 107.559414,105.311606 C108.092444,107.018206 108.94348,108.522497 110.095006,109.768149 C111.242606,111.021977 112.720896,112.004749 114.491522,112.690114 C116.249162,113.371543 118.38551,113.724674 120.839562,113.720434 C125.889002,113.703171 128.549622,112.57412 129.645278,111.966286 C129.838558,111.858469 130.023382,111.66888 129.791446,111.125857 L128.652906,107.914966 C128.476236,107.436451 127.99062,107.61332 127.99062,107.61332 C126.74034,108.078811 124.965486,108.915 120.809664,108.90652 C118.101932,108.901977 116.090612,108.100314 114.831574,106.846183 C113.537806,105.562069 112.906022,103.674057 112.794282,101.010731 L130.281894,101.027994 C130.281894,101.027994 130.74184,101.018909 130.789254,100.57068 C130.806166,100.381394 131.390838,96.9678914 130.26468,93.0159086 L130.264378,93.0159086 Z"/>
        <path fill="#FFF" fill-rule="nonzero" d="M75.0772,108.166337 C74.394076,107.619074 74.29955,107.480971 74.067312,107.127537 C73.723636,106.588451 73.547268,105.821617 73.547268,104.847629 C73.547268,103.304874 74.054628,102.197023 75.1074,101.451389 C75.094716,101.456234 76.61136,100.136989 80.178886,100.18484 C82.684278,100.219063 84.923306,100.58976 84.923306,100.58976 L84.923306,108.56308 L84.927836,108.56308 C84.927836,108.56308 82.70572,109.041594 80.204556,109.192417 C76.64609,109.407446 75.064516,108.162703 75.077502,108.16664 M82.035582,95.8445943 C81.326486,95.7931086 80.406896,95.7628229 79.30671,95.7628229 C77.806676,95.7628229 76.358284,95.9524114 75.00019,96.3188686 C73.63364,96.6853257 72.4045,97.2583314 71.347198,98.0166857 C70.285668,98.77928 69.430404,99.7532686 68.811606,100.908366 C68.192506,102.063463 67.87903,103.425109 67.87903,104.951509 C67.87903,106.502743 68.145394,107.851669 68.678424,108.95528 C69.211756,110.062526 69.98095,110.985029 70.96094,111.696137 C71.932172,112.407246 73.131112,112.928766 74.523634,113.243737 C75.894714,113.558103 77.450014,113.717406 79.152086,113.717406 C80.944758,113.717406 82.732598,113.570823 84.464266,113.273417 C86.179626,112.980554 88.28517,112.553829 88.86954,112.420269 C89.44938,112.281863 90.094452,112.105297 90.094452,112.105297 C90.528426,111.99748 90.493998,111.531989 90.493998,111.531989 L90.485542,95.4947943 C90.485542,91.9780171 89.548738,89.3710229 87.705028,87.7543714 C85.870076,86.1425657 83.166874,85.32788 79.672734,85.32788 C78.362054,85.32788 76.25198,85.5089886 74.988714,85.7630857 C74.988714,85.7630857 71.16781,86.5050857 69.594994,87.7377143 C69.594994,87.7377143 69.250714,87.9527429 69.440068,88.4354971 L70.677664,91.7714686 C70.83259,92.2021314 71.24935,92.0555486 71.24935,92.0555486 C71.24935,92.0555486 71.382834,92.0040629 71.537458,91.9132057 C74.902644,90.0772857 79.157522,90.1333143 79.157522,90.1333143 C81.048042,90.1333143 82.500662,90.5130971 83.480954,91.2672114 C84.435274,92.0001257 84.920588,93.1076743 84.920588,95.4436114 L84.920588,96.1847029 C83.416024,95.9696743 82.036488,95.8445943 82.036488,95.8445943"/>
        <path fill="#FFF" d="M223.077736,86.8079429 C223.21122,86.4118057 222.93187,86.2222171 222.8156,86.1789086 C222.519036,86.0626114 221.03229,85.7479429 219.88469,85.6746514 C217.688546,85.5413943 216.468164,85.9117886 215.376434,86.4030229 C214.293462,86.89456 213.090294,87.6871371 212.419854,88.5881371 L212.419854,86.4548114 C212.419854,86.1574057 212.209058,85.9202686 211.916722,85.9202686 L207.43474,85.9202686 C207.142706,85.9202686 206.93191,86.1571029 206.93191,86.4545086 L206.93191,112.611371 C206.93191,112.904537 207.172604,113.145914 207.46494,113.145914 L212.059266,113.145914 C212.351602,113.145914 212.587766,112.904537 212.587766,112.611674 L212.587766,99.5442971 C212.587766,97.7901486 212.78165,96.04024 213.16821,94.9408686 C213.546616,93.8551257 214.06213,92.9844114 214.698142,92.3596171 C215.338382,91.73876 216.064994,91.3038571 216.860462,91.0579371 C217.672238,90.80808 218.570386,90.7263086 219.207002,90.7263086 C220.122062,90.7263086 221.127722,90.9631429 221.127722,90.9631429 C221.462942,91.0016057 221.651994,90.7947543 221.763734,90.4888686 C222.064526,89.6872057 222.915562,87.28676 223.078642,86.8082457 L223.077736,86.8079429 Z M179.953948,74.68548 C179.395248,74.5128514 178.887888,74.3965543 178.226508,74.2717771 C177.556068,74.1506343 176.756372,74.0906686 175.849768,74.0906686 C172.68662,74.0906686 170.193912,74.9871257 168.444728,76.7536914 C166.704302,78.5123829 165.522274,81.1887314 164.929448,84.7097486 L164.714424,85.8951314 L160.743124,85.8951314 C160.743124,85.8951314 160.262038,85.8778686 160.158754,86.4039314 L159.509454,90.0542686 C159.462644,90.39892 159.61304,90.6187943 160.077214,90.6187943 L163.9407,90.6187943 L160.021344,112.564731 C159.716324,114.331903 159.363588,115.784103 158.972498,116.887411 C158.589864,117.97376 158.215988,118.788143 157.751814,119.382954 C157.304854,119.95172 156.883564,120.374206 156.153026,120.619823 C155.551442,120.822737 154.85503,120.917229 154.094594,120.917229 C153.673304,120.917229 153.110074,120.848177 152.693314,120.762166 C152.280782,120.680394 152.06153,120.589537 151.748054,120.45628 C151.748054,120.45628 151.296564,120.283651 151.11627,120.73612 C150.97433,121.111663 149.943,123.951554 149.818274,124.300749 C149.697474,124.64964 149.869614,124.921606 150.088866,125.003377 C150.604682,125.184183 150.987316,125.30472 151.687654,125.472806 C152.658886,125.70116 153.480024,125.714183 154.249218,125.714183 C155.856462,125.714183 157.326598,125.485829 158.54245,125.04608 C159.763134,124.601789 160.82859,123.830411 161.774454,122.787371 C162.7931,121.65832 163.43334,120.47748 164.043682,118.861131 C164.649494,117.266589 165.169538,115.284389 165.58207,112.973589 L169.52317,90.6184914 L175.28231,90.6184914 C175.28231,90.6184914 175.767624,90.6357543 175.86668,90.1054514 L176.520208,86.4590514 C176.563092,86.11016 176.416924,85.8948286 175.948522,85.8948286 L170.357596,85.8948286 C170.387796,85.7697486 170.641476,83.7960286 171.281716,81.9383029 C171.556536,81.1496629 172.072352,80.5073029 172.506326,80.0678571 C172.936072,79.6368914 173.430446,79.3307029 173.971932,79.1541371 C174.526404,78.9730286 175.158188,78.8870171 175.850372,78.8870171 C176.374342,78.8870171 176.894386,78.9475886 177.285476,79.02936 C177.826962,79.1456571 178.037456,79.2059257 178.179396,79.2489314 C178.75078,79.42156 178.828696,79.2531714 178.940436,78.9775714 L180.276484,75.2966457 C180.414498,74.8999029 180.07505,74.73212 179.954552,74.6848743 L179.953948,74.68548 Z M101.832588,112.612886 C101.832588,112.906051 101.622094,113.142886 101.329758,113.142886 L96.692246,113.142886 C96.400212,113.142886 96.193946,112.906051 96.193946,112.612886 L96.193946,75.1858 C96.193946,74.8926343 96.400212,74.6558 96.692246,74.6558 L101.329456,74.6558 C101.62149,74.6558 101.831984,74.8926343 101.831984,75.1858 L101.831984,112.612886 L101.832588,112.612886 Z"/>
      </g>
    </g>
  </g>
</svg>
